<?xml version="1.0" standalone="no"?>
<!DOCTYPE svg PUBLIC "-//W3C//DTD SVG 1.1//EN" "http://www.w3.org/Graphics/SVG/1.1/DTD/svg11.dtd" >
<svg xmlns="http://www.w3.org/2000/svg" xmlns:xlink="http://www.w3.org/1999/xlink" version="1.1" viewBox="-10 0 266 256">
   <path fill="currentColor"
d="M148 146v-27q-2 1 -5 2q-21 5 -37 11q-9 4 -21 1q-5 -1 0 -2q10 0 20 -4q31 -8 43 -11v-24q-4 2 -9 3q-5 2 -8 3q1 8 2 14q-3 6 -6 1q-1 -1 -2 -5q-1 -6 -1 -8q-7 2 -15 5q-7 2 -14 1q-2 -1 -1 -2l2 -1q12 -1 27 -7q-2 -8 -5 -13q-3 -4 2 -2q7 3 11 13q2 -1 9 -2
q4 -1 8 -3q-1 -13 -1 -20v-10q-2 -3 2 -1q9 7 8 10q-3 3 -2 9q-1 1 -1 5v5q5 -1 15 -4q7 -2 11 -3q5 -13 -5 -20q-3 -1 -2 -2t4 -1q19 8 13 21q11 -4 14 -10t10 -3q4 1 8 5q1 2 1 3q-1 1 -3 1q-17 1 -33 9q-1 1 -2 3q-15 20 -27 28q25 -5 52 -9q0 -9 9 -7q12 4 24 10
q4 5 -3 7q-16 -6 -32 -5q-16 0 -54 8q-2 10 -1 27q13 -2 24 -4q0 -4 2 -5l1 -1q4 -1 5 0q1 3 5 2q6 2 13 6q2 6 -5 5q-10 -4 -19 -4q-1 1 -2 1q-8 0 -24 4q-1 8 -1 18q-1 20 0 31q-1 15 7 27q2 4 0 7t-5 1q-3 -3 -5 -8q-1 -1 -1 -2q-4 -7 -8 -13q-3 -2 -2 -3q0 -2 3 -2
q6 -3 7 -8v-47q-15 5 -26 7q-9 3 -14 0q-3 -1 1 -2q5 1 12 -1q3 -1 5 -2q4 -1 11 -3q6 -1 11 -3zM62 13q2 2 4 3q8 5 8 8v21v54q13 -6 22 -19q4 -6 2 -9q-1 -2 2 -1q4 2 8 6q3 4 -1 5q-1 1 -2 1q-2 1 -4 3q-15 13 -27 16q1 80 -47 106q-3 1 -4 0q0 -1 2 -3q28 -22 36 -57
q9 -35 5 -112q-1 -18 -5 -21q-2 -3 1 -1zM163 -11q7 0 13 7q6 4 -5 22q10 -3 12 -6q4 -6 9 -5q9 2 16 4q1 1 1 3q-1 1 -2 1q-12 2 -39 8q-10 14 -20 26q11 0 29 -6q2 -6 4 -6q7 1 17 8q-1 8 -7 6q-5 -6 -20 -4q-25 5 -43 12l-8 2q-8 3 -15 0q-4 -1 1 -2q9 0 25 -5
q6 -2 10 -3q1 -2 2 -3q9 -12 16 -23q-19 7 -26 10q1 9 -1 12q-2 2 -3 -1q-3 -5 -4 -8q-8 2 -18 0q-4 -1 1 -2h2q9 -3 13 -5l-4 -14q-2 -4 2 -2q7 7 10 14q-1 1 30 -9q13 -27 1 -28q-3 0 -2 -1q0 -1 3 -2zM82 141q-2 -4 1 -2q24 14 28 29q1 4 1 5t-2 0q-9 -1 -11 -5l-8 -14
q-5 -5 -9 -13zM59 102q6 -2 1 2q-16 14 -18 21q-3 5 -6 0q-5 -10 -1 -14q7 -2 8 -13q0 -2 2 -3q1 1 2 3q0 3 -1 8q0 4 3 2q3 -1 10 -6zM177 85q-5 2 -12 3q-7 2 -11 3v22q14 -13 23 -28z" />
</svg>
