<?xml version="1.0" standalone="no"?>
<!DOCTYPE svg PUBLIC "-//W3C//DTD SVG 1.1//EN" "http://www.w3.org/Graphics/SVG/1.1/DTD/svg11.dtd" >
<svg xmlns="http://www.w3.org/2000/svg" xmlns:xlink="http://www.w3.org/1999/xlink" version="1.1" viewBox="-10 0 266 256">
   <path fill="currentColor"
d="M159 1q10 6 18 12q3 4 -2 9q-1 2 -4 5q-4 5 -6 8q-18 27 -40 48q9 3 13 8q1 2 0 4q-4 5 -5 16q-2 16 -1 48q-1 6 6 17q37 -10 48 -9q3 0 2 5q-3 6 -8 3h-6t-13 1q-5 2 -14 3q-5 1 -6 1q1 3 5 6l3 3q0 3 -4 5q-8 -2 -14 -10q-2 -3 -6 -7q-2 0 0 -4q0 -1 1 -2q3 -3 2 -16
q-1 -9 -1 -20q0 -10 1 -20q0 -10 -1 -19q1 -8 -13 -3q-3 2 -2 0q0 -4 2 -8l3 -1q-4 0 2 -1q24 -25 39 -61q7 -15 -1 -19q-2 -2 2 -2zM82 21q-3 -3 2 -2q11 10 19 20q3 1 0 5q-7 8 -15 22q-5 23 -8 51q-2 30 -2 53q0 17 8 26q11 11 13 17q1 4 -4 5q-8 0 -9 -5q-5 -9 -17 -17
q-6 -3 -2 -11q0 -5 8 -7q-2 -18 -1 -53q1 -29 4 -48q-43 55 -66 71q-3 2 -4 2q-1 -1 1 -3q37 -38 74 -102q10 -12 -1 -24zM181 67q7 -1 15 4q20 13 27 20q1 3 -2 4q-13 -4 -13 21q-2 34 -7 75q-1 4 -1 9q-1 4 0 6q0 2 -2 4q-5 2 -8 -4q-3 -3 -7 -8q-6 -5 -11 -16q0 -2 1 -1
q0 1 2 3q7 6 13 7q7 3 8 -3q7 -48 2 -99q-3 -19 -18 -16q-16 3 -26 7q-10 5 -14 3q-5 1 -1 -1q10 -8 42 -15zM164 118q1 -1 4 -2q8 -1 14 0q1 1 3 4q-1 1 -2 1q-4 3 -7 3q-8 2 -19 10q-5 3 -4 0q3 -4 3 -5t-2 -1q-10 4 -16 2q-2 0 -2 -1q1 0 1 -1h2q24 -7 25 -10z" />
</svg>
