<?xml version="1.0" standalone="no"?>
<!DOCTYPE svg PUBLIC "-//W3C//DTD SVG 1.1//EN" "http://www.w3.org/Graphics/SVG/1.1/DTD/svg11.dtd" >
<svg xmlns="http://www.w3.org/2000/svg" xmlns:xlink="http://www.w3.org/1999/xlink" version="1.1" viewBox="-10 0 266 256">
<path
   fill="currentColor"
   d="m 145.62019,159.59894 v -27 q -2,1 -5,2 -21,5 -37,11 -9.000004,4 -21.000004,1 -5,-1 0,-2 10,0 20.000004,-4 31,-8 43,-11 v -24 q -4,2 -9,3 -5,2 -8,3 1,8 2,14 -3,6 -6,1 -1,-1 -2,-5 -1,-6 -1,-8 -7,2 -15,5 -7.000004,2 -14.000004,1 -2,-1 -1,-2 l 2,-1 q 12.000004,-1 27.000004,-7 -2,-8 -5,-13.000002 -3,-4 2,-2 7,3 11,13.000002 2,-1 9,-2 4,-1 8,-3 -1,-13.000002 -1,-20.000002 v -10 q -2,-3 2,-1 9,7 8,10 -3,3 -2,9 -1,1 -1,5 v 5.000002 q 5,-1.000002 15,-4.000002 7,-2 11,-3 5,-13 -5,-20 -3,-1 -2,-2 1,-1 4,-1 19,8 13,21 11,-4 14,-10 3,-6 10,-3 4,1 8,5 1,2 1,3 -1,1 -3,1 -17,1 -33,9 -1,1 -2,3 -15,20.000002 -27,28.000002 25,-5 52,-9 0,-9 9,-7 12,4 24,10 4,5 -3,7 -16,-6 -32,-5 -16,0 -54,8 -2,10 -1,27 13,-2 24,-4 0,-4 2,-5 l 1,-1 q 4,-1 5,0 1,3 5,2 6,2 13,6 2,6 -5,5 -10,-4 -19,-4 -1,1 -2,1 -8,0 -24,4 -1,8 -1,18 -1,20 0,31 -1,15 7,27 2,4 0,7 -2,3 -5,1 -3,-3 -5,-8 -1,-1 -1,-2 -4,-7 -8,-13 -3,-2 -2,-3 0,-2 3,-2 6,-3 7,-8 v -47 q -15,5 -26,7 -9,3 -14,0 -3,-1 1,-2 5,1 12,-1 3,-1 5,-2 4,-1 11,-3 6,-1 11,-3 z M 59.620186,26.598938 q 2,2 4,3 8,5 8,8 v 21 54.000002 q 13,-6 22,-19.000002 4,-6 2,-9 -1,-2 2,-1 4.000004,2 8.000004,6 3,4 -1,5 -1,1 -2,1 -2,1 -4.000004,3 -15,13.000002 -27,16.000002 1,80 -47,106 -3,1 -4,0 0,-1 2,-3 28,-22 36,-57 9,-35 5,-112.000002 -1,-18 -5,-21 -2,-3 1,-1 z M 160.62019,2.5989376 q 7,0 13,7 6,4.0000004 -5,22.0000004 10,-3 12,-6 4,-6 9,-5 9,2 16,4 1,1 1,3 -1,1 -2,1 -12,2 -39,8 -10,14 -20,26 11,0 29,-6 2,-6 4,-6 7,1 17,8 -1,8 -7,6 -5,-6 -20,-4 -25,5 -43,12 l -8,2 q -8,3 -15,0 -4.000004,-1 1,-2 9,0 25,-5 6,-2 10,-3 1,-2 2,-3 9,-12 16,-23 -19,7 -26,10 1,9 -1,12 -2,2 -3,-1 -3,-5 -4,-8 -8,2 -18,0 -4,-1 1,-2 h 2 q 9,-3 13,-5 l -4,-14 q -2,-4 2,-2 7,7 10,14 -1,1 30,-9 13,-27.0000004 1,-28.0000004 -3,0 -2,-1 0,-1 3,-2 z M 79.620186,154.59894 q -2,-4 1,-2 24.000004,14 28.000004,29 1,4 1,5 0,1 -2,0 -9.000004,-1 -11.000004,-5 l -8,-14 q -5,-5 -9,-13 z m -23,-39 q 6,-2 1,2 -16,14 -18,21 -3,5 -6,0 -5,-10 -1,-14 7,-2 8,-13 0,-2 2,-3 1,1 2,3 0,3 -1,8 0,4 3,2 3,-1 10,-6 z M 174.62019,98.598938 q -5,2.000002 -12,3.000002 -7,2 -11,3 v 22 q 14,-13 23,-28.000002 z"
   />
</svg>
