<?xml version="1.0" standalone="no"?>
<!DOCTYPE svg PUBLIC "-//W3C//DTD SVG 1.1//EN" "http://www.w3.org/Graphics/SVG/1.1/DTD/svg11.dtd" >
<svg xmlns="http://www.w3.org/2000/svg" xmlns:xlink="http://www.w3.org/1999/xlink" version="1.1" viewBox="-10 0 266 256">
   <path fill="currentColor"
d="M125 85q1 3 4 6q1 2 1 3q11 -1 18 -6q10 -17 14 -32v-3h-3q-17 8 -29 7q-4 0 -4 -1t4 -2q20 -5 28 -13q5 -5 11 -2l12 8q4 6 -3 8q-6 1 -8 5q-3 8 -14 22q2 -1 8 -1q4 1 1 5q-6 5 -18 6q-5 1 -10 3q-2 1 -6 1l-2 -1q-13 20 -8 48q3 24 24 29q15 4 37 3q24 -1 39 -6 q8 -2 7 -8q-1 -21 -2 -33q-1 -3 0 -3q2 -1 3 1q1 18 14 35q4 7 -1 8q-61 17 -100 6q-23 -7 -25 -32q-3 -29 3 -50q2 -7 2 -11q0 -2 3 0zM68 27q10 8 5 12q-14 28 -25 66q15 -7 27 -17q11 -21 16 -29q2 -3 3 -3t5 4q3 4 0 5q-26 23 -38 73q5 -2 12 -9q2 -2 1 1q-4 6 -12 14 q-4 3 -5 0q-3 -2 0 -4q-1 0 0 -1t1 -2q6 -22 14 -41q-26 17 -30 24q-4 5 -7 1q-5 -6 0 -9q2 -2 8 -5q10 -32 18 -59q4 -12 4 -18q-1 -4 -1 -5q1 0 4 2zM81 117q3 1 7 4h2q1 2 0 4q-3 2 -15 12q-5 3 -2 -1l8 -12q1 -2 -1 -5q-4 -3 1 -2zM92 152q3 3 6 4q13 8 16 11q0 8 -6 6 q-8 -5 -10 -12q-2 -2 -7 -8q-3 -3 1 -1zM74 167q6 2 12 10q1 3 1 4q-1 1 -3 1q-8 1 -13 -11q-1 -2 -1 -3q1 -1 4 -1zM47 179q-1 9 2 6q2 -2 3 -1q1 0 1 3q0 2 -1 3q0 5 2 7q-2 5 -5 3q-7 -3 -4 -21q2 -5 2 0z" />
</svg>